<svg xmlns="http://www.w3.org/2000/svg" width="390" height="390" fill="none" viewBox="0 0 390 390">
  <path fill="#fff" fill-rule="evenodd" d="M195 0C87.305 0 0 87.305 0 195c0 107.696 87.305 195 195 195 107.696 0 195-87.304 195-195C390 87.305 302.696 0 195 0Zm81.263 127.963c8.95 2.456 15.998 9.692 18.39 18.882C299 163.5 299 198.25 299 198.25s0 34.749-4.347 51.405c-2.392 9.19-9.44 16.426-18.39 18.883C260.044 273 195 273 195 273s-65.044 0-81.264-4.462c-8.95-2.457-15.999-9.693-18.39-18.883C91 232.999 91 198.25 91 198.25s0-34.75 4.346-51.405c2.391-9.19 9.44-16.426 18.39-18.882C129.956 123.5 195 123.5 195 123.5s65.044 0 81.263 4.463Z" clip-rule="evenodd"/>
  <path fill="#fff" d="M175.5 234v-65l52 32.501-52 32.499Z"/>
</svg>
